<svg width="25" height="29" viewBox="0 0 25 29" fill="none" xmlns="http://www.w3.org/2000/svg">
<mask id="mask0_44_112" style="mask-type:alpha" maskUnits="userSpaceOnUse" x="0" y="0" width="25" height="29">
<path fill-rule="evenodd" clip-rule="evenodd" d="M12.4505 0.0848389L24.7133 7.20515V21.7948L12.4505 28.9152L0 21.8006V7.19941L12.4505 0.0848389ZM2.48911 10.0959L11.201 15.2124V25.3343L2.48911 20.3561V10.0959ZM13.6901 25.3171L22.2242 20.3619V10.1137L13.6901 15.2066V25.3171ZM12.4405 13.0537L21.0155 7.93634L12.4406 2.95735L3.72721 7.9364L12.4405 13.0537Z" fill="#FFF9F9"/>
</mask>
<g mask="url(#mask0_44_112)">
<path d="M22.2243 20.3672L13.868 19.1087H12.4457H11.2012V28.354L12.4457 29.243L24.8912 21.9673V7.2105L24.5356 5.78815L12.4457 13.0777L4.08942 7.92167L16.5349 5.41865L19.2018 3.28514C10.6678 -9.33818 -0.533203 5.61036 -0.533203 8.27726L12.4457 15.9224L22.2243 10.233V20.3672Z" fill="#3026DC"/>
<path d="M22.2243 20.3672L13.868 19.1087H12.4457H11.2012V28.3539L12.4457 29.2429L24.8912 21.9673V7.21046L24.5356 5.78812L12.4457 13.0776L4.08942 7.92164L16.5349 5.41862L19.5 3.5C10.9659 -9.12332 -0.533203 5.61033 -0.533203 8.27722L12.4457 15.9223L22.2243 10.2329V20.3672Z" fill="url(#paint0_linear_44_112)"/>
</g>
<defs>
<linearGradient id="paint0_linear_44_112" x1="24.8912" y1="14.3813" x2="-0.381868" y2="14.3813" gradientUnits="userSpaceOnUse">
<stop stop-color="#5B52F1"/>
<stop offset="1" stop-color="#1006AC"/>
</linearGradient>
</defs>
</svg>
