<svg width="161" height="38" viewBox="0 0 161 38" fill="none" xmlns="http://www.w3.org/2000/svg">
<path d="M7.429 24.6415C10.005 24.6415 10.994 23.4685 10.994 22.2035C10.994 21.0305 10.143 20.3175 8.648 19.9495L6.118 19.3285C3.703 18.7535 2.001 17.4425 2.001 14.9125C2.001 12.1295 4.393 10.3585 7.521 10.3585C10.902 10.3585 12.742 12.2905 13.294 14.0385L11.201 15.1425C10.948 14.0155 9.775 12.5435 7.521 12.5435C5.635 12.5435 4.416 13.4635 4.416 14.8665C4.416 16.0395 5.29 16.7065 6.647 17.0285L9.292 17.6495C12.121 18.3395 13.455 19.9725 13.455 22.1575C13.455 24.7105 11.385 26.8725 7.383 26.8725C3.818 26.8725 1.794 24.8025 1.15 23.0315L3.197 21.8815C3.657 23.4225 5.267 24.6415 7.429 24.6415ZM18.4176 26.6655L15.0366 14.8205H17.4286L19.7976 23.6525L22.3046 14.8205H24.9036L27.4106 23.6525L29.7796 14.8205H32.1486L28.7676 26.6655H26.1226L23.6156 17.8795L21.0856 26.6655H18.4176ZM34.4998 26.6655V14.8205H36.7998V26.6655H34.4998ZM33.9708 11.1865C33.9708 10.2205 34.6838 9.5075 35.6498 9.5075C36.6158 9.5075 37.3288 10.2205 37.3288 11.1865C37.3288 12.1295 36.6158 12.8655 35.6498 12.8655C34.6838 12.8655 33.9708 12.1295 33.9708 11.1865ZM41.3452 26.6655V16.8675H39.3212V14.8205H41.3912V9.6455H46.0832V11.7155H43.6682V14.8205H46.6582V16.8675H43.6682V26.6655H41.3452ZM50.2643 26.6655V16.8445H48.1483V14.8205H50.3333V11.7615H52.5643V14.8205H55.6233V16.8445H52.5643V24.5035H55.6693V26.6655H50.2643ZM64.1653 24.6415C66.7413 24.6415 67.7303 23.4685 67.7303 22.2035C67.7303 21.0305 66.8793 20.3175 65.3843 19.9495L62.8543 19.3285C60.4393 18.7535 58.7373 17.4425 58.7373 14.9125C58.7373 12.1295 61.1293 10.3585 64.2573 10.3585C67.6383 10.3585 69.4783 12.2905 70.0303 14.0385L67.9373 15.1425C67.6843 14.0155 66.5113 12.5435 64.2573 12.5435C62.3713 12.5435 61.1523 13.4635 61.1523 14.8665C61.1523 16.0395 62.0263 16.7065 63.3833 17.0285L66.0283 17.6495C68.8573 18.3395 70.1913 19.9725 70.1913 22.1575C70.1913 24.7105 68.1213 26.8725 64.1193 26.8725C60.5543 26.8725 58.5303 24.8025 57.8863 23.0315L59.9333 21.8815C60.3933 23.4225 62.0033 24.6415 64.1653 24.6415ZM74.0729 26.6655V16.8445H71.9569V14.8205H74.1419V11.7615H76.3729V14.8205H79.4319V16.8445H76.3729V24.5035H79.4779V26.6655H74.0729ZM87.6979 26.8725C84.0639 26.8725 81.4649 24.2965 81.4649 20.7545C81.4649 17.2125 84.0869 14.6135 87.6979 14.6135C91.3089 14.6135 93.9309 17.2125 93.9309 20.7545C93.9309 24.2735 91.3319 26.8725 87.6979 26.8725ZM83.7879 20.7545C83.7879 23.1005 85.5129 24.7565 87.6979 24.7565C89.9059 24.7565 91.6079 23.1005 91.6079 20.7545C91.6079 18.4085 89.9059 16.7525 87.6979 16.7525C85.4899 16.7525 83.7879 18.4085 83.7879 20.7545ZM101.868 26.8725C98.5555 26.8725 95.7725 24.4345 95.7725 20.7315C95.7725 17.0515 98.4865 14.6135 101.868 14.6135C104.95 14.6135 106.652 16.4305 107.296 18.0635L105.295 19.0985C104.881 17.9255 103.754 16.7525 101.868 16.7525C99.6365 16.7525 98.0955 18.4315 98.0955 20.7315C98.0955 22.9855 99.6365 24.7565 101.868 24.7565C103.685 24.7565 104.881 23.6295 105.295 22.4565L107.296 23.4915C106.652 25.0785 104.858 26.8725 101.868 26.8725ZM110.194 26.6655V9.6455H112.494V18.8455H114.38L117.462 14.8205H120.199L116.243 20.0415L120.314 26.6655H117.623L114.127 21.0535H112.494V26.6655H110.194Z" fill="#E4E4E4"/>
<path d="M7.429 24.6415C10.005 24.6415 10.994 23.4685 10.994 22.2035C10.994 21.0305 10.143 20.3175 8.648 19.9495L6.118 19.3285C3.703 18.7535 2.001 17.4425 2.001 14.9125C2.001 12.1295 4.393 10.3585 7.521 10.3585C10.902 10.3585 12.742 12.2905 13.294 14.0385L11.201 15.1425C10.948 14.0155 9.775 12.5435 7.521 12.5435C5.635 12.5435 4.416 13.4635 4.416 14.8665C4.416 16.0395 5.29 16.7065 6.647 17.0285L9.292 17.6495C12.121 18.3395 13.455 19.9725 13.455 22.1575C13.455 24.7105 11.385 26.8725 7.383 26.8725C3.818 26.8725 1.794 24.8025 1.15 23.0315L3.197 21.8815C3.657 23.4225 5.267 24.6415 7.429 24.6415ZM18.4176 26.6655L15.0366 14.8205H17.4286L19.7976 23.6525L22.3046 14.8205H24.9036L27.4106 23.6525L29.7796 14.8205H32.1486L28.7676 26.6655H26.1226L23.6156 17.8795L21.0856 26.6655H18.4176ZM34.4998 26.6655V14.8205H36.7998V26.6655H34.4998ZM33.9708 11.1865C33.9708 10.2205 34.6838 9.5075 35.6498 9.5075C36.6158 9.5075 37.3288 10.2205 37.3288 11.1865C37.3288 12.1295 36.6158 12.8655 35.6498 12.8655C34.6838 12.8655 33.9708 12.1295 33.9708 11.1865ZM41.3452 26.6655V16.8675H39.3212V14.8205H41.3912V9.6455H46.0832V11.7155H43.6682V14.8205H46.6582V16.8675H43.6682V26.6655H41.3452ZM50.2643 26.6655V16.8445H48.1483V14.8205H50.3333V11.7615H52.5643V14.8205H55.6233V16.8445H52.5643V24.5035H55.6693V26.6655H50.2643ZM64.1653 24.6415C66.7413 24.6415 67.7303 23.4685 67.7303 22.2035C67.7303 21.0305 66.8793 20.3175 65.3843 19.9495L62.8543 19.3285C60.4393 18.7535 58.7373 17.4425 58.7373 14.9125C58.7373 12.1295 61.1293 10.3585 64.2573 10.3585C67.6383 10.3585 69.4783 12.2905 70.0303 14.0385L67.9373 15.1425C67.6843 14.0155 66.5113 12.5435 64.2573 12.5435C62.3713 12.5435 61.1523 13.4635 61.1523 14.8665C61.1523 16.0395 62.0263 16.7065 63.3833 17.0285L66.0283 17.6495C68.8573 18.3395 70.1913 19.9725 70.1913 22.1575C70.1913 24.7105 68.1213 26.8725 64.1193 26.8725C60.5543 26.8725 58.5303 24.8025 57.8863 23.0315L59.9333 21.8815C60.3933 23.4225 62.0033 24.6415 64.1653 24.6415ZM74.0729 26.6655V16.8445H71.9569V14.8205H74.1419V11.7615H76.3729V14.8205H79.4319V16.8445H76.3729V24.5035H79.4779V26.6655H74.0729ZM87.6979 26.8725C84.0639 26.8725 81.4649 24.2965 81.4649 20.7545C81.4649 17.2125 84.0869 14.6135 87.6979 14.6135C91.3089 14.6135 93.9309 17.2125 93.9309 20.7545C93.9309 24.2735 91.3319 26.8725 87.6979 26.8725ZM83.7879 20.7545C83.7879 23.1005 85.5129 24.7565 87.6979 24.7565C89.9059 24.7565 91.6079 23.1005 91.6079 20.7545C91.6079 18.4085 89.9059 16.7525 87.6979 16.7525C85.4899 16.7525 83.7879 18.4085 83.7879 20.7545ZM101.868 26.8725C98.5555 26.8725 95.7725 24.4345 95.7725 20.7315C95.7725 17.0515 98.4865 14.6135 101.868 14.6135C104.95 14.6135 106.652 16.4305 107.296 18.0635L105.295 19.0985C104.881 17.9255 103.754 16.7525 101.868 16.7525C99.6365 16.7525 98.0955 18.4315 98.0955 20.7315C98.0955 22.9855 99.6365 24.7565 101.868 24.7565C103.685 24.7565 104.881 23.6295 105.295 22.4565L107.296 23.4915C106.652 25.0785 104.858 26.8725 101.868 26.8725ZM110.194 26.6655V9.6455H112.494V18.8455H114.38L117.462 14.8205H120.199L116.243 20.0415L120.314 26.6655H117.623L114.127 21.0535H112.494V26.6655H110.194Z" fill="#E4E4E4"/>
<mask id="mask0_52_189" style="mask-type:alpha" maskUnits="userSpaceOnUse" x="129" y="0" width="32" height="38">
<path fill-rule="evenodd" clip-rule="evenodd" d="M145.122 0L161 9.21975V28.1112L145.122 37.331L129 28.1187V9.21231L145.122 0ZM132.223 12.9628L143.504 19.5879V32.6943L132.223 26.2483V12.9628ZM146.727 32.6721L157.777 26.2557V12.9859L146.727 19.5804V32.6721ZM145.109 16.7928L156.212 10.1665L145.109 3.71947L133.826 10.1666L145.109 16.7928Z" fill="#FFF9F9"/>
</mask>
<g mask="url(#mask0_52_189)">
<path d="M157.777 26.2626L146.957 24.6331H145.115H143.504V36.6043L145.115 37.7554L161.23 28.3346V9.22667L160.77 7.38494L145.115 16.8238L134.295 10.1475L150.41 6.9065L153.864 4.14391C142.813 -12.2014 128.31 7.15473 128.31 10.608L145.115 20.5072L157.777 13.1403V26.2626Z" fill="url(#paint0_linear_52_189)"/>
<path d="M157.777 26.2626L146.957 24.6331H145.115H143.504V36.6043L145.115 37.7554L161.23 28.3346V9.22667L160.77 7.38494L145.115 16.8238L134.295 10.1475L150.41 6.9065L153.864 4.14391C142.813 -12.2014 128.31 7.15473 128.31 10.608L145.115 20.5072L157.777 13.1403V26.2626Z" fill="url(#paint1_linear_52_189)"/>
</g>
<defs>
<linearGradient id="paint0_linear_52_189" x1="144.77" y1="-2.32764" x2="144.77" y2="37.7554" gradientUnits="userSpaceOnUse">
<stop stop-color="#FFE8D7"/>
<stop offset="0.880208" stop-color="#FFE8D7" stop-opacity="0.34"/>
<stop offset="1" stop-color="#FFE8D7" stop-opacity="0.28"/>
</linearGradient>
<linearGradient id="paint1_linear_52_189" x1="144.77" y1="-2.32764" x2="144.77" y2="37.7554" gradientUnits="userSpaceOnUse">
<stop stop-color="#FFE8D7"/>
<stop offset="0.880208" stop-color="#FFE8D7" stop-opacity="0.34"/>
<stop offset="1" stop-color="#FFE8D7" stop-opacity="0.28"/>
</linearGradient>
</defs>
</svg>
