<svg width="196" height="58" viewBox="0 0 196 58" fill="none" xmlns="http://www.w3.org/2000/svg">
<path d="M71.5697 35.7973C74.4092 35.7973 75.4993 34.5044 75.4993 33.11C75.4993 31.817 74.5613 31.0311 72.9134 30.6255L70.1246 29.941C67.4627 29.3071 65.5866 27.8621 65.5866 25.0733C65.5866 22.0057 68.2232 20.0536 71.6711 20.0536C75.3979 20.0536 77.4261 22.1832 78.0345 24.1099L75.7275 25.3268C75.4486 24.0846 74.1557 22.462 71.6711 22.462C69.5922 22.462 68.2486 23.4761 68.2486 25.0226C68.2486 26.3156 69.212 27.0508 70.7077 27.4057L73.6233 28.0902C76.7416 28.8508 78.212 30.6508 78.212 33.0593C78.212 35.8734 75.9303 38.2565 71.519 38.2565C67.5894 38.2565 65.3584 35.9748 64.6486 34.0227L66.9049 32.755C67.412 34.4537 69.1866 35.7973 71.5697 35.7973Z" fill="#3026DC"/>
<path d="M83.6822 38.0283L79.9554 24.9719H82.592L85.2033 34.7072L87.9667 24.9719H90.8315L93.5949 34.7072L96.2062 24.9719H98.8175L95.0907 38.0283H92.1752L89.4118 28.3438L86.623 38.0283H83.6822Z" fill="#3026DC"/>
<path d="M101.409 38.0283V24.9719H103.944V38.0283H101.409ZM100.826 20.9663C100.826 19.9015 101.612 19.1155 102.677 19.1155C103.742 19.1155 104.527 19.9015 104.527 20.9663C104.527 22.0057 103.742 22.817 102.677 22.817C101.612 22.817 100.826 22.0057 100.826 20.9663Z" fill="#3026DC"/>
<path d="M108.955 38.0283V27.2283H106.724V24.9719H109.005V19.2677H114.177V21.5494H111.515V24.9719H114.811V27.2283H111.515V38.0283H108.955Z" fill="#3026DC"/>
<path d="M118.786 38.0283V27.2029H116.454V24.9719H118.862V21.6001H121.321V24.9719H124.693V27.2029H121.321V35.6452H124.744V38.0283H118.786Z" fill="#3026DC"/>
<path d="M134.109 35.7973C136.948 35.7973 138.038 34.5044 138.038 33.11C138.038 31.817 137.1 31.0311 135.452 30.6255L132.663 29.941C130.002 29.3071 128.125 27.8621 128.125 25.0733C128.125 22.0057 130.762 20.0536 134.21 20.0536C137.937 20.0536 139.965 22.1832 140.573 24.1099L138.266 25.3268C137.987 24.0846 136.695 22.462 134.21 22.462C132.131 22.462 130.787 23.4761 130.787 25.0226C130.787 26.3156 131.751 27.0508 133.247 27.4057L136.162 28.0902C139.28 28.8508 140.751 30.6508 140.751 33.0593C140.751 35.8734 138.469 38.2565 134.058 38.2565C130.128 38.2565 127.897 35.9748 127.187 34.0227L129.444 32.755C129.951 34.4537 131.725 35.7973 134.109 35.7973Z" fill="#3026DC"/>
<path d="M145.029 38.0283V27.2029H142.697V24.9719H145.106V21.6001H147.565V24.9719H150.937V27.2029H147.565V35.6452H150.987V38.0283H145.029Z" fill="#3026DC"/>
<path d="M160.048 38.2565C156.042 38.2565 153.177 35.417 153.177 31.5128C153.177 27.6085 156.068 24.7437 160.048 24.7437C164.028 24.7437 166.918 27.6085 166.918 31.5128C166.918 35.3917 164.054 38.2565 160.048 38.2565ZM155.738 31.5128C155.738 34.0987 157.639 35.9241 160.048 35.9241C162.482 35.9241 164.358 34.0987 164.358 31.5128C164.358 28.9269 162.482 27.1015 160.048 27.1015C157.614 27.1015 155.738 28.9269 155.738 31.5128Z" fill="#3026DC"/>
<path d="M175.667 38.2565C172.016 38.2565 168.948 35.5691 168.948 31.4874C168.948 27.4311 171.94 24.7437 175.667 24.7437C179.064 24.7437 180.94 26.7466 181.65 28.5466L179.444 29.6874C178.988 28.3945 177.746 27.1015 175.667 27.1015C173.207 27.1015 171.509 28.9522 171.509 31.4874C171.509 33.972 173.207 35.9241 175.667 35.9241C177.669 35.9241 178.988 34.6818 179.444 33.3889L181.65 34.5297C180.94 36.279 178.962 38.2565 175.667 38.2565Z" fill="#3026DC"/>
<path d="M184.845 38.0283V19.2677H187.38V29.4086H189.459L192.856 24.9719H195.873L191.513 30.7269L196 38.0283H193.034L189.18 31.8424H187.38V38.0283H184.845Z" fill="#3026DC"/>
<mask id="mask0_309_284" style="mask-type:alpha" maskUnits="userSpaceOnUse" x="0" y="0" width="49" height="58">
<path fill-rule="evenodd" clip-rule="evenodd" d="M24.6341 0L48.8967 14.088V42.9546L24.6341 57.0426L0 42.9659V14.0766L24.6341 0ZM4.92485 19.8075L22.1618 29.9308V49.9576L4.92485 40.1079V19.8075ZM27.0867 49.9236L43.9719 40.1193V19.8427L27.0867 29.9193V49.9236ZM24.6142 25.6597L41.5804 15.5347L24.6144 5.68344L7.37452 15.5348L24.6142 25.6597Z" fill="#FFF9F9"/>
</mask>
<g mask="url(#mask0_309_284)">
<path d="M43.9724 40.1299L27.439 37.64H24.6248H22.1623V55.9323L24.6248 57.6912L49.249 43.2959V14.0986L48.5454 11.2844L24.6248 25.7072L8.09134 15.5057L32.7156 10.5533L37.9922 6.33202C21.107 -18.644 -1.05481 10.9326 -1.05481 16.2092L24.6248 31.3356L43.9724 20.0788V40.1299Z" fill="#3026DC"/>
</g>
</svg>
